<?xml version="1.0" standalone="no"?>
<!DOCTYPE svg PUBLIC "-//W3C//DTD SVG 1.1//EN" "http://www.w3.org/Graphics/SVG/1.1/DTD/svg11.dtd" >
<!--
2015-9-8: Created with FontForge (http://fontforge.org)
-->
<svg xmlns="http://www.w3.org/2000/svg" xmlns:xlink="http://www.w3.org/1999/xlink" version="1.1">
<metadata>
Created by FontForge 20150827 at Tue Sep 08 16:31:14 2015
 By yrodriguez
Copyright (c) 2015, yrodriguez
</metadata>
<defs>
<font id="sena" horiz-adv-x="1024" >
  <font-face 
    font-family="1509081631-sena_icon"
    font-weight="400"
    font-stretch="normal"
    units-per-em="1024"
    panose-1="2 0 5 9 0 0 0 0 0 0"
    ascent="819"
    descent="-205"
    cap-height="737.3"
    bbox="-0.0153677 -205.114 1024 819"
    underline-thickness="51"
    underline-position="-102"
    unicode-range="U+0031-005A"
  />
    <missing-glyph />
    <glyph glyph-name="A" unicode="A" 
d="M437 315zM459 308zM528 324c130 0 235 105 235 235s-105 235 -235 235s-235 -105 -235 -235s105 -235 235 -235zM459 308l-9 -34l-107 -456c-4 -14 -14 -23 -31 -23c-0.595083 -0.0396722 -1.22164 -0.0588839 -1.87687 -0.0588839
c-15.8608 0 -48.5198 11.2572 -58.1231 16.0589c-12.2439 5.00886 -16.1249 16.5222 -16.1249 27.6448c0 8.86264 2.4641 17.4772 5.12486 22.3552l110 245l86 209c-99 37 -169 132 -169 244c0 144 116 260 260 260s260 -116 260 -260s-116 -260 -260 -260
c-24 0 -69 9 -69 9zM464 532c12 0 23 -4 31 -12c9 -8 13 -18 13 -31c0 -12 -4 -23 -13 -32c-8 -8 -19 -11 -31 -11s-23 3 -31 11c-8 9 -12 20 -12 32c0 13 4 23 12 31s19 12 31 12zM685 711c25 -25 37 -55 37 -89c0 -35 -12 -66 -37 -90c-24 -24 -54 -36 -89 -36
c-34 0 -64 12 -88 36c-25 24 -37 55 -37 90c0 34 12 64 37 89c24 24 53 36 88 36s65 -12 89 -36z" />
    <glyph glyph-name="B" unicode="B" 
d="M837.1 732c0.5 -0.700195 0.900391 -1.2002 1.40039 -2.09961c1.7998 -2.80078 3.5 -5.30078 4.7998 -7.60059c22.2002 -42.5 38.2998 -84.8994 48.5 -126.899l0.299805 -0.900391c7.80078 -32.4004 11.5 -64.5 11.5 -96.9004
c0 -17.5996 -1.09961 -35.5996 -3.5 -54.0996c-0.699219 -3.2002 -1.09961 -6.5 -1.5 -9.7002c-1.7998 -15.2998 -5.89941 -29.0996 -10.8994 -41.5996c-3.2002 -9.2002 -7.60059 -17.7998 -13.2002 -25.7002c-6.5 -10.5996 -13.5 -20.5996 -22.9004 -27.7002
c-4.89941 -3.7002 -15.1992 -10.5 -20.7998 -13.2002c-17.0996 -8.19922 -47.5996 -12.6992 -88.5996 -20.0996c-15.7002 -2.2998 -30.5 -5.09961 -44.2998 -8.2998c-24 -4.60059 -44.8008 -10.4004 -62.3008 -17.2998c-15.1992 -5.5 -30.5 -12 -45.6992 -19.4004
c-22.2002 -10.2002 -43.2002 -21.7002 -63 -34.7002c-13.4004 -7.89941 -26.3008 -16.8994 -38.8008 -27.0996c-50.7998 -36.5 -78.2998 -71.2002 -82.3994 -104.101l-163.4 503.5c23.1006 55.5 54 91.3008 92.7998 107.5c4.2002 1.80078 8.80078 3.5 13.9004 4.90039
c13.9004 3.7002 29.0996 4.90039 45.7002 3.5c35.5996 -1.40039 76.2002 -16.2002 121.899 -44.4004c3.7002 -2.7998 6.90039 -4.89941 9.7002 -6.19922c12.9004 -6.5 25.4004 -12.9004 37.4004 -19.4004c36 -17.0996 64.3994 -25.7002 85.2002 -25.7002
c14.7998 1.40039 28.3994 3 40.8994 4.90039c4.2002 0.899414 8.10059 1.7998 11.7998 2.7998c5.10059 0.900391 9.90039 2.09961 14.5 3.5c17.5 5.5 36.5 16.5996 56.8008 33.2998c12 11.1006 30.8994 31 56.7998 59.7002c2.39941 2.90039 5.59961 6.90039 7.39941 9.5z
M649.5 467.7c16.5996 0 34.5996 2.5 54 7.59961c21.2002 5.10059 36.2002 9.2002 45 12.5l-43.5996 89.5c-9.7002 -2.7998 -28.2002 -5.2998 -55.4004 -7.59961c-24.5 -2.7998 -53.0996 0.700195 -85.9004 10.3994c-1.69922 0.800781 -3.19922 1.5 -4.7998 2.10059
c-2.2998 0.899414 -4.7998 1.7998 -7.59961 2.7998l0.700195 -1.40039l54.6992 -113.1c2.80078 -0.5 5.80078 -0.700195 9 -0.700195zM423 471.9l80.2998 -180.4c10.2002 11.5996 40.4004 25 90.7002 40.2002c39.2002 11.5996 64.9004 17.5996 76.9004 18h2.7998h2.7998
l-12.5 22.2998l-57.5 98.5c-6.09961 2.40039 -20.5 6.7002 -46.4004 11.7998c-25.8994 5.10059 -52.8994 5.10059 -81 0c-20.7998 -3.2002 -35.7998 -5.89941 -46.6992 -8.39941zM120.4 544c0.899414 25.4004 11.2998 43 31.1992 52.7002c4.60059 1.7998 9.5 3 14.5 3.5
c18 1.7998 33.7002 -6.2002 47.1006 -24.2998l216.8 -634.7c3.2002 -21.7002 -6.90039 -40.9004 -30.5 -57.6006c-24.9004 -5.5 -45.7002 3 -62.2998 25.7002l-171.101 502.2z" />
    <glyph glyph-name="C" unicode="C" 
d="M350.3 504c14.9004 15.2998 22.4004 34.2002 22.4004 56.5c0 21.4004 -7.40039 39.7002 -22.4004 55.0996c-9.7998 10.2002 -21 17.2002 -33.5 20.9004c-7 1.90039 -14.3994 2.7998 -22.3994 2.7998c-21.9004 0 -40.3008 -7.89941 -55.2002 -23.7002
c-14.9004 -15.2998 -22.4004 -33.6992 -22.4004 -55.0996c0 -15.2998 3.5 -29 10.5 -41.0996c3.2998 -5.60059 7.2002 -10.7002 11.9004 -15.3008c14.8994 -15.7998 33.2998 -23.6992 55.2002 -23.6992c21.8994 -0.100586 40.5 7.7998 55.8994 23.5996zM872 211.8
c-102.9 35.2998 -207.9 62.5 -315 81.6006c-11.5996 1.89941 -23.0996 3.69922 -34.2002 5.59961l-315 25.7998l-42 3.7998l-86.5 7.40039l112.4 53.7002c2.7998 33 9.5 64.3994 20.2998 94.0996c-17.7002 21.4004 -26.5 46 -26.5 73.9004
c0 31.0996 10.9004 57.8994 32.7998 80.2002c21.9004 22.2998 48.7002 33.5 80.2998 33.5c17.2002 0 33.3008 -3.5 48.2002 -10.5c63.7998 47.3994 137.4 71.0996 220.7 71.0996c103.8 0 192.5 -36.7002 266.1 -110.2c74 -73.5 111.101 -162.2 111.101 -266.399
c0 -56.7002 -10.9004 -109.2 -32.7998 -157.601zM216.9 263.4c2.2998 10.1992 5.09961 20 8.39941 29.2998l306.601 -27.9004c7.39941 -1.39941 15.0996 -2.59961 23 -3.5c96.8994 -18.5996 191.8 -43.8994 285 -76c-0.900391 -24.2002 -4 -47.2002 -9.10059 -69
c-14 -53 -41.8994 -100.6 -83.7998 -142.899c-61.4004 -60.9004 -135.5 -91.4004 -222.1 -91.4004c-86.1006 0 -160.2 30.5 -222.101 91.2998c-61.5 61.7998 -92.2002 136 -92.2002 222.4c0 23.7998 2.10059 46.2998 6.30078 67.7002zM536.8 218.1
c-7 12.1006 -15.5996 18.1006 -25.7998 18.1006s-19.0996 -6 -26.5 -18.1006c-7.40039 -11.5996 -11.2002 -25.5996 -11.2002 -41.7998c0 -16.7002 3.7002 -30.8994 11.2002 -42.5c7.40039 -11.5996 16.2998 -17.3994 26.5 -17.3994s18.9004 5.7998 25.7998 17.3994
c7.40039 11.6006 11.2002 25.7998 11.2002 42.5c0 16.2002 -3.7998 30.2002 -11.2002 41.7998zM265.8 176.3c0 -16.7002 3.7002 -30.8994 11.2002 -42.5c7 -11.5996 15.5996 -17.3994 25.7998 -17.3994c10.7002 0 19.2998 5.7998 25.7998 17.3994
c7.40039 11.6006 11.2002 25.7998 11.2002 42.5c0 16.2998 -3.7002 30.2002 -11.2002 41.7998c-6.5 12.1006 -15.0996 18.1006 -25.7998 18.1006c-10.2002 0 -18.8994 -6 -25.7998 -18.1006c-7.5 -11.5996 -11.2002 -25.5996 -11.2002 -41.7998z" />
    <glyph glyph-name="D" unicode="D" 
d="M735.1 155.6c-14.0996 14.6006 -31 21.8008 -50.7998 21.8008c-18.7998 0 -35.2002 -7.30078 -49.2998 -21.8008c-13.2002 -14.0996 -19.7002 -31.1992 -19.7002 -51.3994s6.60059 -37.6006 19.7002 -52.1006c14.0996 -14.5996 30.5 -21.7998 49.2998 -21.7998
c19.7002 0 36.7002 7.2998 50.7998 21.7998c12.7002 14.6006 19 31.9004 19 52.1006s-6.2998 37.2998 -19 51.3994zM507.4 243.6c19.6992 0 36.3994 7.30078 50 21.8008c13.5996 14.5996 20.3994 31.6992 20.3994 51.3994c0 20.7002 -6.7998 37.7998 -20.3994 51.4004
c-13.6006 15 -30.3008 22.5 -50 22.5c-19.3008 0 -35.5 -7.5 -48.6006 -22.5c-13.5996 -13.6006 -20.3994 -30.7998 -20.3994 -51.4004c0 -19.7002 6.7998 -36.7998 20.3994 -51.3994c13.1006 -14.5 29.2998 -21.8008 48.6006 -21.8008zM126.8 485.2
c0 54 19 100 57.1006 138c38.0996 37.5996 84.0996 56.2998 138.199 56.2998h380c54.5 0 100.601 -18.7998 138.2 -56.2998c38.1006 -38 57.1006 -84 57.1006 -138v-356.3c0 -53.5 -19 -99.5 -57.1006 -138c-37.5996 -37.6006 -83.5996 -56.3008 -138.2 -56.3008h-380.1
c-54 0 -100.1 18.8008 -138.2 56.3008c-38.0996 38.5 -57.0996 84.5 -57.0996 138v356.3h0.0996094zM315.7 435.9c19.7002 0 36.2002 7.2998 49.2998 21.7998c13.5996 14.5996 20.4004 31.8994 20.4004 52.0996s-6.80078 37.6006 -20.4004 52.1006
c-13.2002 14.5996 -29.5996 21.7998 -49.2998 21.7998c-18.7998 0 -35 -7.2998 -48.6006 -21.7998c-14.0996 -14.6006 -21.0996 -31.9004 -21.0996 -52.1006s7 -37.5 21.0996 -52.0996c13.6006 -14.6006 29.8008 -21.7998 48.6006 -21.7998z" />
    <glyph glyph-name="E" unicode="E" 
d="M891.9 141.3c0 17.9004 -2.2002 33.2998 -6.7002 46.2998c-4.5 12.9004 -9.7002 18.7002 -15.7002 17.2002c-7 -1.5 -12.4004 -9.7002 -16.4004 -24.5996c-4.5 -14.9004 -6.69922 -31.7998 -6.69922 -50.7998c0 -19.4004 2.19922 -35.6006 6.69922 -48.5
c4 -12.4004 9.7002 -17.7002 17.2002 -15.7002c5.5 2.5 10.4004 11.2002 14.9004 26.0996c4.5 14.9004 6.7002 31.6006 6.7002 50zM938.2 382.4c-4 11.8994 -9 17.8994 -14.9004 17.8994c-5.5 0 -10.2002 -6.2002 -14.2002 -18.7002
c-3.5 -12.8994 -5.19922 -28.3994 -5.19922 -46.2998c0 -18.3994 2 -34.0996 6 -47c4 -12.3994 8.69922 -18.2002 14.1992 -17.2002c5.5 1.5 10.2002 8.7002 14.2002 21.6006c3.5 12.8994 5.2002 28.3994 5.2002 46.2998c-0.0996094 16.5 -1.7998 30.9004 -5.2998 43.4004z
M866.5 660.8l109.7 -26.0996c13.3994 -3 24.8994 -20.4004 34.2998 -52.2002c9 -31.2998 13.4004 -68.4004 13.4004 -111.2v-279.899c0 -42.3008 -4.5 -80.4004 -13.4004 -114.2c-8.5 -35.7998 -19.7002 -57 -33.5996 -63.4004l-109 -48.5
c-3.5 -1.5 -7 -2.2002 -10.4004 -2.2002c-13.9004 0 -26.4004 12.9004 -37.2998 38.8008c-13.9004 33.2998 -20.9004 76.8994 -20.9004 130.6v354.4c0 52.6992 7 96.5 20.9004 131.399c13 33.2998 28.3994 47.5 46.2998 42.5zM985.2 539.9
c-3.5 12.3994 -7.7002 18.8994 -12.7002 19.3994c-5.5 1 -9.90039 -4.5 -13.4004 -16.3994c-3 -10.9004 -4.5 -24.9004 -4.5 -41.8008c0 -16.8994 1.7002 -31.5996 5.2002 -44c4 -12.3994 8.5 -18.6992 13.4004 -18.6992c4.5 0 8.5 6 11.8994 17.8994
c4 11.4004 6 25.1006 6 41c0.100586 16.9004 -1.89941 31.1006 -5.89941 42.6006zM514.2 171.9c-13.4004 -14.4004 -20.2002 -31.6006 -20.2002 -51.5c0 -19.4004 6.7002 -36.6006 20.2002 -51.5c13.3994 -14.4004 29.8994 -21.6006 49.2998 -21.6006
c18.9004 0 35.2998 7.2002 49.2998 21.6006c13.4004 14.8994 20.1006 32.0996 20.1006 51.5c0 19.8994 -6.7002 37.0996 -20.1006 51.5c-13.8994 14.3994 -30.3994 21.5996 -49.2998 21.5996c-19.4004 0.0996094 -35.7998 -7.2002 -49.2998 -21.5996zM198.5 186.1
c-19.4004 0 -36.0996 -7 -50 -20.8994c-12.9004 -14.9004 -19.4004 -32.1006 -19.4004 -51.5c0 -20.4004 6.5 -37.7998 19.4004 -52.2002c13.9004 -14.4004 30.5996 -21.5996 50 -21.5996c18.9004 0 35.2998 7.19922 49.2998 21.5996
c13.4004 14.4004 20.2002 31.7998 20.2002 52.2002c0 19.3994 -6.7002 36.5996 -20.2002 51.5c-13.8994 13.8994 -30.3994 20.8994 -49.2998 20.8994zM0 483.9c0 53.6992 18.9004 99.5 56.7002 137.3c37.2998 37.2998 82.7998 56 136.6 56h376.9
c53.7002 0 99.7998 -18.7002 138.1 -56c37.2998 -37.7998 56 -83.6006 56 -137.3v-354.5c0 -53.2002 -18.7002 -98.8008 -56 -136.601c-38.2998 -37.2998 -84.2998 -56 -138.1 -56h-376.9c-53.7002 0 -99.2998 18.7002 -136.6 56
c-37.7998 37.7998 -56.7002 83.2998 -56.7002 136.601v354.5zM185.8 574.9c-19.8994 0 -36.2998 -7.5 -49.2998 -22.4004c-12.9004 -13.9004 -19.4004 -30.7998 -19.4004 -50.7998c0 -20.4004 6.5 -38.1006 19.4004 -53c12.9004 -12.9004 29.4004 -19.4004 49.2998 -19.4004
c18.9004 0 35.1006 6.5 48.5 19.4004c13.4004 14.8994 20.2002 32.5996 20.2002 53c0 19.8994 -6.7002 36.7998 -20.2002 50.7998c-13.3994 15 -29.5 22.4004 -48.5 22.4004zM485.1 504.8c0 -19.3994 7 -36.2998 20.9004 -50.7998
c12.9004 -14.9004 29.4004 -22.4004 49.2998 -22.4004c18.4004 0 34.6006 7.5 48.5 22.4004c13.4004 14.4004 20.2002 31.2998 20.2002 50.7998c0 20.4004 -6.7002 37.6006 -20.2002 51.5c-13.8994 14.4004 -30.0996 21.6006 -48.5 21.6006
c-19.8994 0 -36.2998 -7.2002 -49.2998 -21.6006c-13.9004 -13.8994 -20.9004 -31.0996 -20.9004 -51.5z" />
    <glyph glyph-name="F" unicode="F" 
d="M518 730.3l386.5 -18c7.7998 -1 14.0996 -1.7998 18.7998 -2.39941c7.7998 -1.60059 12.2998 -3.10059 13.2998 -4.7002c1 -3.10059 -4.39941 -6.2998 -16.3994 -9.40039l-224.7 -72.7998c-40.7002 -16.2002 -92.7998 -21.7002 -156.5 -16.4004l-366.9 29
c-28.6992 1.60059 -46.6992 5.2002 -54 11c-6.2998 5.7002 0 10.2002 18.8008 13.3008l262.899 64.0996c13 2.09961 25.7998 4.40039 38.2998 7c25.6006 2.7002 52.2002 2.40039 79.9004 -0.700195zM794.9 119.3c-5.2002 8.90039 -12 11 -20.3008 6.2998
c-9.39941 -5.69922 -17.5 -17 -24.2998 -33.6992c-6.7998 -17.2002 -10.3994 -34.7002 -10.8994 -52.5c-1.60059 -17.8008 0.799805 -31.1006 7 -39.9004c5.69922 -7.7998 13 -8.59961 21.8994 -2.40039c8.90039 5.7002 16.7002 16.7002 23.5 32.9004
c5.7002 16.2002 9.60059 33.2002 11.7002 50.9004c0.5 17.2998 -2.2998 30.0996 -8.59961 38.3994zM888 343.3c-4.7002 10.4004 -11.5 13.2998 -20.2998 8.60059c-8.2998 -3.7002 -15.4004 -13.8008 -21.1006 -30.5c-6.7998 -16.7002 -11 -34.2002 -12.5 -52.5
c-1 -18.3008 1.30078 -32.6006 7 -43.1006c4.2002 -8.89941 10.7002 -11 19.6006 -6.2998c7.2998 4.7002 14.2998 14.9004 21.0996 30.5c6.2998 16.2002 10.2002 33.2002 11.7002 50.9004c1 18.3994 -0.799805 32.5 -5.5 42.3994zM976.4 678.6
c14.0996 -1 26.0996 -13.5996 36 -37.5996c10.3994 -29.7998 13.7998 -69.2002 10.1992 -118.3l-26.5996 -341.5c-3.09961 -36.5 -8.59961 -63.7002 -16.4004 -81.5c-9.89941 -24.5 -23.6992 -43.1006 -41.5 -55.6006l-179.199 -132.3
c-3.7002 -3.09961 -7.80078 -5.7002 -12.5 -7.7998c-6.80078 -2.59961 -13.3008 -3.90039 -19.6006 -3.90039c-11.5 0 -20.8994 5.2002 -28.2002 15.7002c-18.2998 19.7998 -26.8994 53.7998 -25.7998 101.8l8.60059 335.2c1.59961 57.4004 13.5996 111 36 160.601
c20.8994 49.5996 45.0996 79.3994 72.7998 89.2998l172.899 73.5996c3.7002 1.5 8.10059 2.2998 13.3008 2.2998zM950.6 570.5c-8.2998 -3.7002 -15.5996 -13.5996 -21.8994 -29.7998c-6.7998 -16.2002 -10.7002 -33.7002 -11.7002 -52.5
c-1.59961 -19.2998 0.299805 -34.5 5.5 -45.4004c4.2002 -10.3994 9.90039 -13.7998 17.2002 -10.2002c7.7998 3.10059 14.8994 13 21.0996 29.8008c6.2998 15.6992 10.2002 32.5996 11.7002 50.8994c1.59961 19.2998 0.299805 34.2002 -3.90039 44.6006
c-4.19922 11.5 -10.1992 15.6992 -18 12.5996zM529.7 74.7002c-10.4004 14.0996 -23.5 21.3994 -39.1006 21.8994c-15.0996 1 -27.8994 -4.69922 -38.2998 -17.1992c-10.3994 -12 -15.0996 -26.9004 -14.0996 -44.6006c0 -17.2002 5.2002 -32.3994 15.5996 -45.3994
c10.4004 -13 23 -19.8008 37.6006 -20.4004c15.5996 0 28.3994 5.7002 38.2998 17.2002c10.3994 12.5 15.5996 27.2002 15.5996 43.8994c0 16.7002 -5.2002 31.5 -15.5996 44.6006zM388.9 159.3c10.3994 13.1006 15.3994 29 14.8994 47.7998
c-1 19.3008 -7.2998 36.3008 -18.7998 50.9004c-12 14.0996 -25.2998 21.7002 -39.9004 22.7002c-16.1992 0.5 -29.6992 -5.5 -40.6992 -18c-10.9004 -13.6006 -15.6006 -29.7998 -14.1006 -48.6006c1 -18.7998 7.2998 -35.5 18.7998 -50.0996
c10.9004 -14.0996 24.5 -21.7002 40.7002 -22.7002c15.6006 -0.599609 28.6006 5.5 39.1006 18zM246.5 -6.7998c8.90039 12 12.7998 26.5996 11.7002 43.8994c0 17.8008 -6.2998 33.2002 -18.7998 46.2002c-10.9004 13.1006 -24.3008 20.1006 -39.9004 21.1006
s-28.2002 -4.40039 -37.5996 -16.4004c-9.40039 -12.5 -13.6006 -27.4004 -12.5 -44.5996c1.59961 -18.3008 8.2998 -33.9004 20.2998 -47c10.8994 -12 24.2998 -18.5 39.8994 -19.6006c14.2002 0 26.4004 5.5 36.9004 16.4004zM171.4 333.9
c15.5996 -0.5 28.6992 6.2998 39.0996 20.3994c11 14.1006 15.4004 31.2998 13.2998 51.7002c-1 20.9004 -7.59961 38.9004 -19.5996 54c-13.6006 16.2002 -28.2002 24.5 -43.7998 25.0996c-17.7002 1 -31.6006 -5.5 -41.5 -19.5996
c-10.4004 -14.5996 -14.9004 -32.9004 -13.3008 -54.7998c2.10059 -19.7998 9.60059 -37.1006 22.7002 -51.7002c12 -16.2002 26.4004 -24.5 43.1006 -25.0996zM0.799805 405.2c-0.5 9.89941 -0.799805 19.0996 -0.799805 27.3994c-0.5 44.4004 11.2002 83 35.2002 115.9
c29.2002 40.2002 67.7998 59 115.8 56.4004l334.9 -30.5c46.8994 -2.60059 87.0996 -25.6006 120.5 -68.9004c32.2998 -41.7998 47.6992 -90.2998 46.1992 -145.7l-7.7998 -321.1c-1 -46 -16.8994 -84.1006 -47.7002 -114.4
c-28.6992 -29.7998 -63.0996 -44.0996 -103.3 -43.0996l-287.899 14.8994c-40.7002 2.60059 -76.9004 19.8008 -108.801 51.7002c-32.8994 34 -52.1992 74.2002 -58 120.601zM522.6 341c11.5 14.0996 17 31.7998 16.4004 53.2998c0 19.7998 -5.5 37.2998 -16.4004 52.5
c-12 16.2002 -26.2998 24.5 -43 25.1006c-16.6992 1 -30.7998 -5.7002 -42.2998 -20.4004c-10.8994 -14.0996 -16.3994 -31.5996 -16.3994 -52.5c1 -20.4004 7.2998 -38.0996 18.7998 -53.2998c12 -15.1006 25.7998 -23.2002 41.5 -24.2998
c16.7002 0 30.5 6.5 41.3994 19.5996zM506.2 697.4c-14.1006 -1.60059 -21.4004 -4.7002 -21.9004 -9.40039c0 -4.2002 7 -7.7998 21.1006 -11c13.5996 -4.2002 29.5 -6.5 47.6992 -7.09961c19.3008 -0.5 35.7002 0.5 49.3008 3.09961
c14.5996 2.09961 21.5996 5.5 21.0996 10.2002c0.5 4.2002 -6.2998 8.39941 -20.2998 12.5c-14.1006 2.59961 -30.5 4.39941 -49.2998 5.5c-18.7002 1.09961 -34.7002 -0.200195 -47.7002 -3.7998z" />
    <glyph glyph-name="G" unicode="G" 
d="M170.9 545.8c-8 -14.2002 -12 -31.2002 -12 -51s4 -36.7998 12 -51c9 -14.2002 19.5996 -21.2002 31.8994 -21.2002s22.9004 7.10059 31.9004 21.2002c8 14.2002 12 31.2002 12 51s-4 36.7998 -12 51c-9 14.6006 -19.6006 21.9004 -31.9004 21.9004
s-22.8994 -7.2998 -31.8994 -21.9004zM367.1 538c-8 -14.5996 -12 -31.9004 -12 -51.7002c0 -19.3994 4 -36.0996 12 -50.2998c9.40039 -14.5996 20.1006 -22 31.9004 -22c12.7002 0 23.5996 7.2998 32.5996 22c9 14.2002 13.5 30.9004 13.5 50.2998
c0 19.7998 -4.5 37.1006 -13.5 51.7002c-9 14.2002 -19.7998 21.2002 -32.5996 21.2002c-11.7998 0 -22.5 -7.10059 -31.9004 -21.2002zM515.8 324.8l96.2998 24.7998l-2.09961 34.7002c-0.5 24.1006 8.2998 37.5 26.2002 40.4004l133.1 30.5
c19.7998 5.7002 33 -1.40039 39.7002 -21.2002v-41.0996l102 20.5c21.7002 1.39941 36.0996 -1.60059 43.2002 -9.2002c6.59961 -6.60059 9.39941 -18.7002 8.5 -36.1006l-12 -271.199c2.7998 -46.7002 -10.9004 -76.7002 -41.1006 -89.9004l-282.6 -90.0996l-97 -30.5
c-48.5996 -11.3008 -73.5996 -1.2002 -75.0996 30.5c0 2.39941 0.5 4.69922 1.39941 7.09961l0.700195 300.3c-1.90039 31.2002 1.40039 54.2998 9.90039 69.4004c8.5 16.5 24.7998 26.8994 48.8994 31.0996zM423.7 307.1l-5 -332.1
c-95.4004 4.7002 -177.5 41.2998 -246.4 109.8c-74.0996 74.1006 -111.2 163.101 -111.2 267c0 105.8 37.1006 195.7 111.2 269.8c74.2002 73.6006 163.2 110.4 267 110.4c105.3 0 194.7 -36.7998 268.4 -110.5c36.3994 -36.7998 64 -77.2002 82.8994 -121.1l-177 -41.8008
c-25.5 -6.59961 -38.8994 -18.1992 -40.3994 -34.6992v-10.6006v-33.2998l-119.7 -31.9004c-20.2998 -6.5 -30.2002 -20.1992 -29.7998 -41zM656.7 226.4v-79.3008l-47.4004 -13.5l125.3 -84.2998l123.9 154.4l-49.5 -14.1006v72.9004z" />
    <glyph glyph-name="H" unicode="H" 
d="M544.8 722.5c25 -5.5 49.5 -14.2998 73.5 -26.4004c28.2002 -13.3994 53.2002 -28.1992 74.9004 -44.3994c20.7998 -15.2998 40 -33.6006 57.5996 -54.9004c19 -22.2002 35.4004 -45.7998 49.2002 -70.7998c-10.2002 7.40039 -21.5 13.7002 -34 18.7002
c-55.5 27.7998 -112.8 31.7002 -172 11.7998c-9.7002 -3.7002 -18.5 -7.2002 -26.4004 -10.4004c-45.2998 -22.1992 -79.5 -56.8994 -102.6 -104.1c-27.7002 -56.5 -31.4004 -114.1 -11.0996 -172.9c18.5 -50.8994 49.1992 -90 92.1992 -117.3
c7.40039 -4.59961 15.3008 -9.2998 23.6006 -13.8994c27.7002 -12.5 56.5996 -19.9004 86.7002 -22.2002c9.69922 -0.5 19.5996 -0.700195 29.7998 -0.700195l18 -52.7998c-17.6006 -14.2998 -36.2998 -27.1006 -56.2002 -38.2002
c-18.5 -10.2002 -37.7002 -18.7002 -57.5996 -25.7002c-38.4004 -13.3994 -76.8008 -21.5 -115.101 -24.2998c-13.8994 0.5 -28.3994 1.40039 -43.7002 2.7998c-9.69922 0.900391 -19.8994 1.7998 -30.5 2.7998l-65.0996 18.1006
c-11.0996 4.2002 -22.9004 9.2002 -35.4004 15.2998c-13.3994 6 -26.0996 12.5 -38.0996 19.4004c-32.4004 20.7998 -61.2998 47.1992 -86.7002 79.0996c-19.3994 22.2002 -36.0996 46.0996 -49.8994 71.5c-32.4004 62 -45.5 129.8 -39.5 203.4
c6 73.5996 29.7998 138.199 71.3994 193.699c18.5 23.1006 39.1006 44.2002 61.7002 63.2002c66.0996 56 140.1 85.4004 221.9 88.2002c17.0996 0.900391 34.3994 0.5 52 -1.40039c18.0996 -1.2998 35.1992 -3.89941 51.3994 -7.59961zM347.1 380.9
c-6 0.5 -11.7998 -0.200195 -17.2998 -2.10059c-5.5 -3.2002 -11.0996 -8.7998 -16.5996 -16.7002c-8.7998 -13 -14.1006 -29.3994 -16 -49.2998c-0.5 -6.5 -0.5 -12.7002 0 -18.7002c0.899414 -11.5996 3.2002 -22.1992 6.89941 -31.8994
c4.60059 -7.90039 9.7002 -13.9004 15.3008 -18c5.09961 -3.7002 10.3994 -5.7998 16 -6.2998c12.5 -0.900391 23.5996 5.2998 33.2998 18.6992c9.7002 13 15.5 29.2002 17.2998 48.6006c1.7998 19.8994 -1.2002 37 -9 51.3994
c-1.40039 2.80078 -2.7998 4.90039 -4.2002 6.30078c-7.39941 11.0996 -16 17.0996 -25.7002 18zM491.4 412.2c18.5 50 52.5 85.8994 102 107.6c21.2998 9.2998 43 14.7998 65.1992 16.7002c27.7002 1.7998 55.7002 -2.7998 83.9004 -13.9004
c23.5996 -8.2998 43.5 -20.5996 59.5996 -36.7998c20.3008 -17.5996 36.5 -39.2998 48.5 -65.2998c21.3008 -50 22.9004 -99.7002 4.80078 -149.3c-11.1006 -27.2998 -25.9004 -50.4004 -44.4004 -69.4004c-4.59961 -3.7002 -9 -7.39941 -13.2002 -11.0996
c-5.09961 -4.2002 -10.3994 -7.90039 -16 -11.1006l22.9004 -72.8994c1.39941 0 2.7998 0.200195 4.2002 0.700195c2.7998 0.899414 5.09961 1.59961 6.89941 2.09961c16.6006 0.5 32.7998 -2.2998 48.5 -8.2998c2.2998 0 4.2002 -0.700195 5.5 -2.10059
c19.4004 -8.7998 35.1006 -20.7998 47.2002 -36.0996c4.2002 -6.5 7.90039 -13.2002 11.0996 -20.0996c13.4004 -29.6006 14.3008 -59.2002 2.80078 -88.9004c-11.1006 -28.7002 -30.5 -49.2998 -58.3008 -61.7998c-29.0996 -12.5 -58.2998 -13.4004 -87.3994 -2.7998
c-14.7998 6.5 -27.2998 13.8994 -37.5 22.1992c-10.2002 10.6006 -19.2002 23.1006 -27 37.5c-2.2998 7.40039 -4.60059 14.3008 -6.90039 20.8008c-5.09961 22.1992 -3.7002 44.3994 4.2002 66.6992c0.900391 1.40039 2.2998 3 4.2002 4.90039
c3.7002 10.5996 9.2002 20.4004 16.5996 29.2002c0.900391 1.7998 3 3.7002 6.2002 5.5c0.5 0.899414 0.900391 1.59961 1.40039 2.09961l-33.3008 72.2002c-0.14869 0.322379 -7.09961 -1.5 -12.0996 -2.5c-9.2982 -1.85964 -15.1858 -3.09961 -23.9004 -3.09961
c-11.0996 0 -21.2998 0.699219 -30.5 2.09961c-14.2998 1.7998 -28.3994 6 -42.2998 12.5c-49.8994 19 -86.2002 53.5 -108.899 103.5c-21.2002 48 -22.5 97.7998 -4 149.2zM754.9 404.5c4.59961 4.59961 6.69922 9.5 6.19922 14.5996c0 5.60059 -1.7998 10 -5.5 13.2002
c-55.5 58.7998 -114.199 65.2998 -176.199 19.4004c-4.60059 -3.2002 -7.40039 -7.60059 -8.30078 -13.2002c-0.899414 -5.59961 0.900391 -9.5 4.90039 -14.5996c3.44804 -4.39591 6.2002 -7.40039 11.7998 -8.30078c5.5 -0.899414 10.9004 0.200195 15.9004 3.5
c43.5 31.5 84.3994 26.6006 122.8 -14.5996c4.2002 -3.7002 9 -5.2998 14.5996 -4.90039c4.60059 0.100586 9.2002 1.7002 13.8008 4.90039zM646.7 389.9c-5.10059 0 -10.4004 -1.40039 -16 -4.2002c-8.2998 -3.7002 -16.9004 -10.6006 -25.7002 -20.7998
c-12.9004 -19 -20.2998 -42.3008 -22.2002 -70.1006c-2.2998 -26.8994 -1.41382 -51.7934 10.4004 -70.7998c6.89941 -11.0996 10.7998 -16 17.7998 -24c1.30323 -1.4894 5.89545 -4.65462 7.2002 -5.2002c5.5 -2.2998 11.0996 -3.7002 16.5996 -4.2002
c17.6006 -1.39941 33.1006 7.2002 46.5 25.7002c13.9004 18.5 21.7002 41.4004 23.6006 68.7002c2.2998 27.7998 -1.60059 51.7998 -11.8008 72.2002c-10.1992 20.3994 -24 31.2002 -41.5996 32.5996c-1.7998 0.600586 -3.40039 0.600586 -4.7998 0.100586z" />
    <glyph glyph-name="I" unicode="I" 
d="M625.5 316.7l-14.0996 4.89941c-2.80078 1.40039 -5.60059 3.10059 -8.5 4.90039c-12.7002 7.5 -24.4004 15.2998 -35.2002 23.2998c-5.2002 4.2002 -10.2998 8.7002 -15.5 13.4004c-3.2998 2.7998 -6.2998 5.59961 -9.2002 8.5
c-41.4004 39.5 -61.0996 85.7998 -59.2002 138.899c-5.2002 -64.7998 8 -116.8 39.5 -155.8h-219.2h-16.8994h-56.4004h-16.8994c-4.7002 0 -9.2002 -0.5 -13.4004 -1.39941c-8 -1.40039 -15.5 -4.2002 -22.5996 -8.5c-0.5 -0.5 -1.2002 -0.900391 -2.10059 -1.40039
c-6.09961 -3.2998 -11.7002 -7.7998 -16.8994 -13.4004c-1.40039 -2.39941 -3.30078 -4.69922 -5.60059 -7c-11.2998 -14.5996 -16.8994 -32 -16.8994 -52.1992c0 -18.8008 5.19922 -35.5 15.5 -50c1.89941 -3.30078 4.19922 -6.30078 7 -9.2002
c7.5 -8 15.6992 -13.9004 24.6992 -17.6006l7 -3.5c3.80078 -0.899414 8 -1.59961 12.7002 -2.09961h0.700195c0.5 0 1.2002 -0.200195 2.09961 -0.700195h5.60059c-2.7998 0.5 -5.40039 0.900391 -7.7998 1.40039h-1.40039c-2.40039 0.5 -4.5 1.39941 -6.2998 2.7998
c-3.7998 2.40039 -7 4.7002 -9.90039 7c-0.899414 0.900391 -1.59961 1.59961 -2.09961 2.09961c-1.90039 1.40039 -3.7998 3.30078 -5.60059 5.60059c-11.6992 13.5996 -17.5996 30.2998 -17.5996 50c0 19.2998 5.90039 36.2002 17.5996 50.7002
c1.40039 1.39941 3.10059 2.59961 4.90039 3.5c8.5 8 17.9004 13.1992 28.2002 15.5h25.3994h37.4004h1.40039h5.59961h5.59961h34.5h210l12.7002 4.89941c19.2998 -16 41.1006 -28.8994 65.6006 -38.7998l-58.5 -134.6l-264.301 -3.5l-49.2998 -0.700195l-39.5 -0.700195
h-7l-21.0996 8.5c-13.2002 5.59961 -24.9004 14.2998 -35.2002 26.0996c-4.2002 4.2002 -7.7998 8.7002 -10.5996 13.4004c-15.5 21.0996 -23.3008 45.5996 -23.3008 73.2998c0 29.1006 8.5 54.5 25.4004 76.1006l0.700195 2.09961l6.2998 7.7998
c6.09961 7.5 12.2002 15.2998 18.2998 23.2998c58.7002 72.8008 137 155.5 234.7 248.101l12.7002 12.7002c16 16 28.8994 26.7998 38.7998 32.3994c7 3.7998 14.2998 5.60059 21.7998 5.60059h94.5h0.700195c14.5996 13.1992 29.5996 23.5 45.0996 31
c14.6006 7.5 29.6006 13.1992 45.1006 16.8994c17.8994 4.7002 35.8994 7 54.2998 7c23 0 44.9004 -2.7002 65.5996 -8.5c26.8008 -7.39941 53.1006 -17.8994 93.7002 -54.2998c45.4004 -40.2002 64.2002 -94.9004 64.2002 -155.5
c0 -60.0996 -21.4004 -111.4 -64.0996 -153.6c-21.6006 -21.1006 -45.3008 -37.6006 -71.2002 -49.3008c-16.5 -7 -33.7998 -12.3994 -52.2002 -14.0996c-55.7002 -5.2998 -88.0996 4.2002 -88.0996 4.2002l-7 -28.2002l19.6992 -2.7998l-22.5996 -22.5l-5.59961 -25.4004
l40.1992 47.2002c31 2.2998 58.5 8.7002 82.5 19l-136.899 -124.1l-11.2998 -45.8008l171.3 160.7l-5.60059 -95.2002l-196 -197.3l-6.2998 -29.5996l226.3 228.399v-45.7998l-246.699 -251c-7.5 -9.89941 -18.8008 -14.7002 -33.8008 -16.0996
c-12.1992 -0.900391 -22.5996 0.700195 -31 4.89941c-7 2.40039 -14.5996 5.5 -22.5996 11.1006l-232.6 2.09961h-15.5c-28.7002 2.40039 -52.9004 14.2998 -72.6006 35.9004l-6.2998 7c-18.2998 22.5 -27.5 49.0996 -27.5 79.5996
c0 33.7998 11.2998 62.7002 33.7998 86.7002c9.90039 10.7998 20.7002 18.7998 32.4004 24v0.700195h0.700195h96.5996h0.700195h1.39941h265l-16.1992 -33.1006h-206.601h-16.8994h-56.4004h-16.9004c-4.69922 0 -9.19922 -0.199219 -13.3994 -0.699219
c-8 -1.40039 -15.2998 -4.2002 -21.9004 -8.5c-0.899414 -0.5 -1.89941 -0.900391 -2.7998 -1.40039c-6.09961 -3.2998 -11.5 -7.7998 -16.2002 -13.4004c-1.89941 -2.39941 -4 -4.69922 -6.2998 -7c-11.2998 -15 -16.9004 -32.3994 -16.9004 -52.1992
c0 -19.3008 5.40039 -36.2002 16.2002 -50.7002c1.40039 -2.7998 3.7998 -5.60059 7 -8.5c7 -8 14 -13.7998 24 -18.2998c11.2002 -5.10059 28.9004 -6.30078 28.9004 -6.30078c-18.7002 8 -26.7002 11.9004 -33.1006 19c-12.1992 13.6006 -18.2998 30.5 -18.2998 50.7002
c0 19.2998 6.10059 35.9004 18.2998 50c0.900391 1.90039 2.30078 3.2998 4.2002 4.2002c2.7998 2.2998 5.90039 4.7002 9.2002 7c5.59961 4.2002 12.2002 7 19.7002 8.5h24.7002h37.3994h1.40039h5.59961h5.60059h34.5996h177.6l-39.3994 -80.4004l-32.5 -63.3994
c-0.900391 -6.60059 2.39941 -13.6006 9.89941 -21.1006l10.6006 -9.19922c-5.2002 7 -6.60059 13.1992 -4.2002 18.2998l24 47.8994l77.5 174.801c45.5996 105.199 69.5996 164 71.9004 176.199l0.5 2c0.5 0.900391 0.199219 1.40039 -0.700195 1.40039zM564.2 660.7
c-11.2998 -11.2998 -21.1006 -23.5 -29.6006 -36.7002c-18.2998 -29.5996 -27.5 -63 -27.5 -100.1v-2.80078v-4.19922c1.90039 -43.2002 16.7002 -81.1006 44.4004 -113.5c2.40039 -2.30078 4.5 -4.7002 6.2998 -7c1.90039 -2.80078 4 -4.90039 6.2998 -6.30078
c9.40039 -9.89941 19.3008 -18.5996 29.6006 -26.0996c16.5 -10.7998 34.0996 -19 52.8994 -24.7002c16.9004 -4.7002 34.5 -7 52.9004 -7h8.5c7 0.5 13.4004 0.900391 19 1.40039c16.4004 2.2998 31.7002 6.59961 45.7998 12.7002
c22.6006 10.2998 43.2002 24.8994 62 43.6992c38.1006 36.6006 57.1006 81.3008 57.1006 133.9c0 53.5996 -19 99.0996 -57.1006 136.7l-2.7998 2.7998c-12.2002 11.7002 -25.2002 21.4004 -38.7998 28.9004c-27.7002 16 -59 24 -93.7998 24
c-40.4004 0 -76.4004 -10.8008 -107.9 -32.4004c-9.2002 -7.09961 -18.4004 -14.9004 -27.2998 -23.2998zM753.1 676.9c32 0 59.2002 -11.3008 81.8008 -33.8008c23 -23 34.5 -50.2998 34.5 -81.7998c0 -32.3994 -11.5 -59.8994 -34.5 -82.5
c-22.6006 -22.5 -49.9004 -33.7998 -81.8008 -33.7998c-31.8994 0 -59 11.2998 -81.0996 33.7998c-23 22.6006 -34.5 50 -34.5 82.5c0 31.5 11.5 58.7002 34.5 81.7998c22.0996 22.5 49.0996 33.8008 81.0996 33.8008zM659.3 467.6
c8.5 -7.5 12.7002 -17.1992 12.7002 -28.8994c0 -10.7998 -4.2002 -20.4004 -12.7002 -28.9004c-7.5 -7 -16.7002 -10.5996 -27.5 -10.5996c-11.7998 0 -21.3994 3.5 -28.8994 10.5996c-7.5 8.5 -11.3008 18.1006 -11.3008 28.9004
c0 11.7002 3.80078 21.3994 11.3008 28.8994s17.0996 11.3008 28.8994 11.3008c10.7998 -0.100586 20 -3.80078 27.5 -11.3008zM548.7 196.2h1.39941v2.09961z" />
    <glyph glyph-name="J" unicode="J" 
d="M361.3 602.3c0 11.6006 4.10059 21.9004 12.2002 30.7998c8.5 7.7002 18.5996 11.6006 30.2002 11.6006c11.2002 0 20.7002 -3.90039 28.5 -11.6006c8.5 -8.89941 12.7998 -19.1992 12.7998 -30.7998c0 -11.2002 -4.2998 -20.7002 -12.7998 -28.5
c-7.7002 -8.09961 -17.2002 -12.2002 -28.5 -12.2002c-11.6006 0 -21.7002 4.10059 -30.2002 12.2002c-8.09961 7.7998 -12.2002 17.2998 -12.2002 28.5zM669.1 588.4c-27.8994 -1.60059 -46.5 -4.60059 -55.6992 -9.30078
c-7.7002 -3.5 -13.6006 -7.89941 -17.4004 -13.3994c-3.09961 -5.7998 -4.7002 -12.6006 -4.7002 -20.2998c0 -10.5 3.10059 -18.2002 9.2998 -23.2002c5 -5.7998 12.6006 -8.7002 22.6006 -8.7002c10.0996 0 19.5996 3.09961 28.5 9.2998c7.7002 5.7998 13 13 15.7002 21.5
l1.69922 13.9004v30.2002zM566.9 728.9c20.8994 5.39941 42.5996 8.09961 65 8.09961c21.2998 0 40.2998 -3.09961 56.8994 -9.2998c15.1006 -6.2002 27.2998 -14.5 36.6006 -25c8.5 -10.4004 15.0996 -23 19.6992 -37.7002
c3.90039 -13.2002 5.80078 -28.0996 5.80078 -44.7002v-94.0996c0 -30.2002 1.19922 -52.1006 3.5 -65.6006h-74.9004l-5.7998 26.7002h-1.7002c-8.5 -10.7998 -19.7002 -19.3994 -33.7002 -25.5996c-13.2002 -5 -27.8994 -7.5 -44.0996 -7.5
c-13.2002 0 -25.2002 2.2998 -36 7c-10.7998 4.2998 -20.1006 10.5 -27.9004 18.5996c-7.7002 7.40039 -13.5 16.1006 -17.3994 26.1006c-3.5 9.69922 -5.2002 20.0996 -5.2002 31.3994c0 17.4004 3.5 32.7002 10.3994 45.9004c7.7002 12.7998 19 23.3994 33.7002 31.8994
c13.2002 8.90039 29.6006 15.3008 49.4004 19.2002c19 3.90039 40.5996 5.7998 65 5.7998v4.60059c0 9.2998 -2.90039 17 -8.7002 23.2002c-3.90039 3.5 -8.90039 6.39941 -15.0996 8.69922c-7 1.60059 -15.3008 2.30078 -25 2.30078
c-13.9004 0 -27.9004 -1.90039 -41.8008 -5.80078c-12.7998 -3.5 -24 -8.09961 -33.6992 -13.8994l-15.1006 54c11.6006 6.2002 25 11.3994 40.1006 15.7002zM289.3 73.9004c2.2998 48 -4.2998 89.3994 -19.7002 124.199c19 22.5 43.7002 22.5 74.3008 0v258.5
c-0.800781 13.6006 5.59961 25.7002 19.1992 36.6006c12 9.7002 24.6006 14.5 37.7002 14.5c17.4004 -0.799805 31.4004 -5.7998 41.7998 -15.1006c10.8008 -9.69922 16.5 -21.6992 16.8008 -36l6.39941 -193.3c77.4004 -7.7002 141.3 -31.8994 191.601 -72.5996
c4.69922 -12.7998 9.69922 -43.5 15.0996 -92.2998c6.2002 -64.6006 3.2998 -110.9 -8.7002 -138.801c-14.7002 -33.6992 -52.5 -57.6992 -113.2 -72c-54.5996 -12.7998 -105.5 -13.8994 -152.699 -3.5c-35.6006 7.7002 -65 24.8008 -88.3008 51.1006
c-12.7998 14.7002 -21.8994 29.3994 -27.2998 44.0996z" />
    <glyph glyph-name="K" unicode="K" 
d="M873.7 561.8c100.2 -100.2 150.3 -221 150.3 -362.5c0 -63.5 -10.0996 -122.8 -30.2002 -177.8h-324.899v3.7002v3.7002c0 46.1992 -15.2002 86.3994 -45.5 120.699l239.699 339.7c8.80078 15.2002 8.80078 26.1006 0 32.7998
c-10.8994 7.80078 -21.8994 5.10059 -32.7998 -7.89941l-274.6 -315.9c-21.5 8.7998 -44.7998 13.2002 -69.9004 13.2002c-50.5 0 -93.7002 -17.5996 -129.7 -52.9004c-35.5996 -36 -53.5 -79.1992 -53.5 -129.699v-3.7002v-3.7002h-272
c-20.3994 55 -30.5996 114.3 -30.5996 177.8c0 141.5 49.9004 262.3 149.8 362.5c100.2 99.7998 221 149.8 362.5 149.8c141.8 0 262.3 -49.8994 361.4 -149.8zM526 141.6c10.2002 -3.19922 20.0996 -7.7998 29.5996 -13.7998
c7.10059 -4.89941 13.8008 -10.5996 20.1006 -16.8994c2.5 -2.5 4.7998 -4.90039 6.89941 -7.40039c19.4004 -22.2002 29.1006 -48.5 29.1006 -78.9004v-2.59961c-0.400391 -32.5 -12.4004 -60.2998 -36 -83.5996c-23.6006 -24 -52.4004 -36 -86.2998 -36
c-33.5 0 -62.3008 12 -86.3008 36c-23.2998 23.2998 -35.2998 51.1992 -36 83.5996v2.59961c0 33.5 12 62.3008 36 86.3008s52.7002 36 86.3008 36c12.7998 0 25 -1.7002 36.5996 -5.30078z" />
    <glyph glyph-name="L" unicode="L" 
d="M549.4 102.2c66.1992 17 102.399 50 108.6 98.7998h-160.6h-1.40039c-5.2998 21.5996 -7.90039 44.4004 -7.90039 68.2002c0 5.89941 0.200195 11.5996 0.5 17.2002c0.300781 5.2998 0.800781 10.3994 1.40039 15.2998c6.5 60.8994 31.5996 113.5 75.2002 157.8
c52.5996 52.2998 116 78.4004 190.2 78.4004c74.1992 0 137.6 -26.1006 190.199 -78.4004c52.3008 -52 78.4004 -115.4 78.4004 -190.2c0 -74.2002 -26.0996 -137.5 -78.4004 -189.8c-52.5996 -52 -116 -77.9004 -190.199 -77.9004c-74.2002 0 -137.7 26 -190.2 77.9004
c-6.7998 7.40039 -13.1006 14.7002 -19 21.7998c0.799805 0.200195 1.89941 0.5 3.2002 0.900391zM541 583.8c0 -74.2002 -26.4004 -138 -79.2998 -191.2c-13 -13 -26.6006 -24.3994 -40.7998 -34.2998l47.2998 -52.3994l-110.9 20.8994
c-26.8994 -9 -55.7998 -13.5 -86.7998 -13.5c-74.5996 0 -138.1 26.4004 -190.7 79.2998c-53.2002 53.2002 -79.7998 116.9 -79.7998 191.2c0 9.90039 0.5 19.5 1.40039 28.7998h538.699c0.600586 -9.2998 0.900391 -18.8994 0.900391 -28.7998z" />
    <glyph glyph-name="M" unicode="M" 
d="M747.8 520.7c23.2002 -22.6006 42.4004 -46.6006 57.7002 -72c28.2998 -4.7998 53.7002 -18.4004 76.2998 -41c28.9004 -29.2998 43.4004 -64.1006 43.4004 -104.4c0 -40.3994 -14.5 -75 -43.4004 -104c-18.0996 -18.0996 -38.5 -30.7002 -61 -37.7002
c-8.59961 -2.5 -17.5996 -4.2998 -27.2002 -5.19922c1.90039 5.69922 3.7002 11.2998 5.2002 16.6992c18.1006 68.4004 22.4004 135.601 12.9004 201.7c-14 48.6006 -41 92.2002 -81.1006 130.7c-61 59.0996 -134.5 88.7002 -220.3 88.7002
c-86.2002 0 -159.8 -29.6006 -220.8 -88.7002c-32.4004 -31.5 -56.2998 -66.5996 -71.5 -105.4c-16.9004 -83.2998 -12.7002 -164.5 12.4004 -243.699h-0.5c-11.8008 1 -22.7002 3.2998 -32.9004 7.19922c-20 7 -38.2998 18.8008 -54.7998 35.3008
c-8.90039 9.19922 -16.5 18.8994 -22.9004 29.0996c-13.7002 22.5996 -20.5 47.5 -20.5 74.9004c0 28 6.7998 53.0996 20.5 75.3994c6.40039 10.2002 14 19.9004 22.9004 29.1006c20.7002 20.2998 44.3994 33.6992 71.0996 40.0996
c14.9004 26.0996 34.2002 50.5996 57.7002 73.4004c66 64 145.5 96.0996 238.4 96.0996c92.7998 0 172.3 -32.0996 238.399 -96.2998zM705.9 472.5c54.3994 -54.7002 81.5996 -120.5 81.5996 -197.4c0 -76.2998 -27.2002 -141.8 -81.5996 -196.5
c-54.7002 -54.3994 -120.2 -81.5996 -196.5 -81.5996c-76.6006 0 -142.301 27.2002 -197 81.5996c-54.4004 54.6006 -81.5 120.101 -81.5 196.4c0 76.9004 27.1992 142.8 81.5996 197.4c54.7002 54.3994 120.3 81.5996 197 81.5996c76.2002 0 141.7 -27.0996 196.4 -81.5z
M674.9 197.8h-332.4c19.7002 -67.3994 75.7998 -103.5 168.4 -108.3c90.5 -0.599609 145.199 35.5 164 108.3z" />
    <glyph glyph-name="N" unicode="N" 
d="M289.9 259c-0.600586 0.900391 -1 1.59961 -1.40039 2.2002c-16.2998 33.2002 -24.5 69.5996 -24.5 109c0 46.5 11.2998 88.2002 33.7998 125.1c10.5 17.4004 23.2998 33.9004 38.5 49.4004c28.2002 28.2002 59.9004 48.2002 95.1006 60
c24.7998 8.2002 51.2998 12.2998 79.5 12.2998c67.6992 0 125.699 -24.0996 174.199 -72.4004c47.9004 -48.0996 71.8008 -106.3 71.8008 -174.5c0 -42.2998 -9.2002 -80.6992 -27.5 -115.399l-229.9 -92.1006zM568 313.5c-5.59961 -9.2002 -8.5 -20.4004 -8.5 -33.4004
c0 -12.6992 2.90039 -23.6992 8.5 -33c5.40039 -9.2998 12.0996 -14 20.2998 -14s15.1006 4.7002 20.7002 14c5.7002 9.30078 8.5 20.3008 8.5 33c0 13 -2.90039 24.1006 -8.5 33.4004c-5.59961 9 -12.5 13.5 -20.7002 13.5s-14.8994 -4.5 -20.2998 -13.5zM407.4 311
c-5.60059 -9.2998 -8.5 -20.2998 -8.5 -33s2.89941 -23.7002 8.5 -33c5.59961 -9.2998 12.5 -14 20.6992 -14c8.2002 0 15.1006 4.7002 20.7002 14c5.2998 9.2998 8 20.2998 8 33s-2.7002 23.7002 -8 33c-5.59961 9.2998 -12.5 13.9004 -20.7002 13.9004
c-8.19922 0 -15.0996 -4.60059 -20.6992 -13.9004zM499.5 138.2l322.5 134.399l-93.7998 -189.8l-221.9 -85.7998l-219.8 96.7998l-84.5 185.9z" />
    <glyph glyph-name="O" unicode="O" 
d="M443.7 45.9004c-78.6006 0 -145.8 27.8994 -201.601 83.6992c-55.7998 55.8008 -83.6992 123 -83.6992 201.601c0 79 27.8994 146.3 83.6992 202.1c55.8008 55.7998 123 83.7002 201.601 83.7002c78.5996 0 145.8 -27.9004 201.6 -83.7002s83.7002 -123.2 83.7002 -202.1
c0 -78.6006 -27.9004 -145.8 -83.7002 -201.601c-55.7998 -55.7998 -123 -83.6992 -201.6 -83.6992zM434.4 254.4c-6.5 -10.4004 -9.80078 -23.2002 -9.80078 -38.2002c0 -14.7002 3.30078 -27.4004 9.80078 -38.2002c6.5 -10.7002 14.3994 -16.0996 23.5 -16.0996
c9.5 0 17.5 5.2998 24 16.0996s9.7998 23.5 9.7998 38.2002c0 15 -3.2998 27.7998 -9.7998 38.2002c-6.5 10.7998 -14.5 16.1992 -24 16.1992c-9.10059 0 -17 -5.39941 -23.5 -16.1992zM248.5 251.9c-6.2002 -10.7002 -9.2998 -23.4004 -9.2998 -38.2002
c0 -15 3.09961 -27.7998 9.2998 -38.2002c6.5 -10.7002 14.5 -16.0996 24 -16.0996s17.5 5.2998 24 16.0996c6.5 10.5 9.7998 23.2002 9.7998 38.2002c0 14.7002 -3.2998 27.3994 -9.7998 38.2002c-6.5 10.7998 -14.5 16.1992 -24 16.1992s-17.5 -5.39941 -24 -16.1992z
M722.2 181.5c137.6 -53.7998 214.5 -115.3 230.5 -184.5l-794.2 2.40039l-10.2998 20.0996h463.399c70.1006 35.9004 107 89.9004 110.601 162zM185.4 51.2998c-15.2002 -10.7002 -28.5 -13.7002 -42.6006 -14c-19.5996 -0.700195 -36.3994 7 -50.3994 21
s-21 30.7998 -21 50.4004c0 19.5996 7 36.5 21 50.8994c8.5 8.10059 18 13.8008 28.3994 17.1006l-29.3994 57.7002l42.5996 17.0996l40.0996 -78.9004c6.90039 -3.2998 13.2002 -7.69922 19.1006 -13.1992c14 -14.4004 21 -31.3008 21 -50.9004
c0 -4.2002 -0.400391 -8.2998 -1 -12.2002l37.2002 -72.8994l-57.7002 13.6992z" />
    <glyph glyph-name="P" unicode="P" 
d="M93.5 305.5c21.2998 21 46.7998 31.5 76.4004 31.5h237.699c29.6006 0 54.9004 -10.5 75.9004 -31.5c21.2998 -21 32 -46.4004 32 -76.4004v-94.8994c0 -12.7002 -1.7998 -24.2998 -5.5 -35c-5.2998 -15.7002 -14.0996 -29.5 -26.5 -41.5
c-21 -21.6006 -46.2998 -32.5 -75.9004 -32.5h-237.699c-29.6006 0 -55.1006 10.7998 -76.4004 32.5c-21 21 -31.5 46.3994 -31.5 76.3994v94.9004c0 30.0996 10.5 55.5 31.5 76.5zM418.6 588.7h373.601c47 0 87.0996 -16.7002 120.399 -49.9004
c33 -33 49.4004 -72.8994 49.4004 -119.899v-149.9c0 -47 -16.5 -87.0996 -49.4004 -120.4c-33.2998 -33 -73.3994 -49.3994 -120.399 -49.3994h-237.7c1.7002 7.7002 2.5 16.2998 2.5 26v111.899c0 35.6006 -12.7002 65.9004 -38 90.9004
c-25 25 -55.0996 37.5 -90.4004 37.5h-179.8v53.4004c0 46.8994 16.5 86.8994 49.4004 119.899c33.2998 33.2002 73.5 49.9004 120.399 49.9004z" />
    <glyph glyph-name="Q" unicode="Q" 
d="M677.7 515.3c0 -46.8994 -16.5 -86.5 -49.4004 -118.8c-32 -32.7998 -71.5 -49.2998 -118.5 -49.2998c-46 0 -85.5 16.3994 -118.5 49.2998c-33 32.4004 -49.3994 72 -49.3994 118.8c0 45.9004 16.5 85.2998 49.3994 118.101c33 32.3994 72.4004 48.5996 118.5 48.5996
c47 0 86.5 -16.2002 118.5 -48.5996c33 -32.8008 49.4004 -72.2002 49.4004 -118.101zM511.3 321.9c77.5 0 143.7 -30.4004 198.4 -91.3008c54.7998 -61.7998 82.0996 -136 82.0996 -222.5c0 -26.5996 -2.7002 -51.8994 -8 -76.0996h-544.399
c-4.80078 24.2002 -7.30078 49.5 -7.30078 76.0996c0 86.5 27.1006 160.601 81.4004 222.5c54.7998 60.8008 120.7 91.3008 197.8 91.3008z" />
    <glyph glyph-name="R" unicode="R" 
d="M795.8 535.1c9.2998 15.7002 20.4004 26.8008 33.2998 33.3008c14.8008 6.89941 30.1006 6 45.9004 -2.80078c15.7998 -8.7998 24.5 -20.7998 26.4004 -36c1.39941 -13.3994 -2.80078 -30.5 -12.5 -51.2998l-112.601 -226.8
c7.40039 -23.0996 11.1006 -47.7998 11.1006 -74.2002c0 -67.8994 -24.1006 -125.7 -72.3008 -173.3c-47.5996 -48 -105.5 -72 -173.6 -72s-126.2 24 -174.4 72.0996c-46.2998 46.2002 -70.1992 101.9 -71.5996 167.101h82h50.7002
c-0.5 -4.60059 -0.700195 -9.5 -0.700195 -14.6006c0 -34.6992 12.2998 -64.5 36.7998 -89.3994c25 -24.5 54.9004 -36.7002 89.6006 -36.7002c35.1992 0 65.0996 12.2002 89.5996 36.7002c24.5 25 36.7998 54.7998 36.7998 89.3994
c0 34.6006 -12.2002 64.4004 -36.7002 89.4004c-0.899414 0.900391 -1.89941 1.7998 -2.7998 2.7998l9.7002 18l54.9004 100.5zM586.6 654.3c18.5 18.5 41 27.7002 67.4004 27.7002s48.9004 -9.2002 67.4004 -27.7002c19 -18.8994 28.5 -41.5996 28.5 -67.8994
c0 -25.9004 -9.5 -48.3008 -28.5 -67.2002c-18.5 -18.5 -41 -27.7002 -67.4004 -27.7002s-48.9004 9.2002 -67.4004 27.7002c-19 18.8994 -28.5 41.3994 -28.5 67.2002c0 26.2998 9.5 48.8994 28.5 67.8994zM610.2 454.6c15.7998 6 30.0996 5.30078 43.0996 -2.09961
c14.4004 -7.40039 23.2002 -18.2998 26.4004 -32.5996c3.2002 -13.4004 1.89941 -26.3008 -4.2002 -38.8008l-49.2998 -93.5996l-10.4004 -20.0996l-36.7998 -70h-280.7l-86.7998 -115.101c-19.4004 -22.5996 -43.2998 -31 -71.5996 -25
c-21.3008 15.7002 -23.2002 38.7998 -5.60059 69.2998l136.2 164.301h223l12.5 20.7998l69.5 115.8c7.40039 12.5996 19 21.5996 34.7002 27.0996z" />
    <glyph glyph-name="S" unicode="S" 
d="M758.5 440.3c9.59961 -11.5 12.0996 -23.5996 7.59961 -36.0996c-15.5996 -30.6006 -23.3994 -64.7002 -23.3994 -102.3c-4 -36.6006 3 -69.9004 21.2002 -100c9.09961 -11 7.59961 -23.1006 -4.5 -36.1006l-161.101 -148.8
c-18.5996 -14 -35.2998 -23.2998 -49.8994 -27.7998c-7.60059 -2 -14.3008 -3 -20.4004 -3c-19.5996 0 -35.5 9.2998 -47.5996 27.7998c-47.3008 88.7002 -71 185.7 -71 291c-0.5 102.3 20.8994 195.7 64.1992 280.5c10.1006 26.0996 25.9004 39.0996 47.6006 39.0996
c6.09961 0 12.5996 -1 19.5996 -3c17.6006 -5.5 38.2998 -18 62 -37.5996zM789.5 365.9c9.09961 18.5 19.5996 27.0996 31.7002 25.5996c12.0996 -0.5 22.3994 -10 31 -28.5996c7.59961 -18 11.2998 -39.6006 11.2998 -64.7002
c0 -25.1006 -3.7998 -46.4004 -11.2998 -63.9004c-8.60059 -19 -18.9004 -29.0996 -31 -30.0996c-12.1006 -1 -22.7002 7.5 -31.7002 25.5996c-9.59961 18 -14.0996 40.6006 -13.5996 67.7002c-0.5 27 4 49.7998 13.5996 68.4004zM358 533.5c3.5 -3 5.7998 -7 6.7998 -12
c0.5 -4.5 -0.299805 -9 -2.2998 -13.5c-28.7002 -55.0996 -43.5996 -117.6 -44.5996 -187.2c-3 -88.2002 16.5996 -166.2 59 -233.8c2.5 -4 3.5 -8.5 3 -13.5c-1 -4.5 -3 -8.5 -6.10059 -12c-3 -3 -6.5 -4.2998 -10.5996 -3.7998c-4 1 -7.2998 3.5 -9.7998 7.5
c-45.8008 74.2002 -67.5 159.7 -65 256.399c1.5 76.7002 18.0996 145.101 49.8994 205.301c1.5 4.5 4.5 7.2998 9.10059 8.2998c3.5 0.799805 7 0.299805 10.5996 -1.7002zM264.3 681.7c4.5 1 8.60059 -0.200195 12.1006 -3.7998c4 -4 6.59961 -9 7.59961 -15
c0.5 -5.5 -0.299805 -11 -2.2998 -16.5c-54.5 -87.3008 -82.7002 -188.601 -84.7002 -303.801c-3.5 -143.899 32.7998 -268.199 108.8 -373c2.5 -5 3.7998 -10.2998 3.7998 -15.7998c-0.5 -6.5 -2.2998 -11.7998 -5.2998 -15.7998c-3.5 -4 -8.09961 -6 -13.5996 -6
c-4.5 0 -8.60059 2.7998 -12.1006 8.2998c-82.5996 114.3 -121.899 248.601 -117.899 403c2.5 125.3 32.7002 235.3 90.7002 330.101c3.59961 5 7.7998 7.7998 12.8994 8.2998z" />
    <glyph glyph-name="T" unicode="T" 
d="M331.2 529c-11.5 -5.09961 -21.9004 -10.4004 -31.2998 -15.9004v118.101c19.5996 14.3994 40.1992 25.5996 61.8994 33.7002c36.6006 13.5996 78.2002 19.0996 125 16.5c45.5 -2.10059 84 -10.6006 115.4 -25.4004c23.7998 -11 46.0996 -27.0996 67 -48.2998
c19.5996 -19.5 33.5996 -40 42.0996 -61.6006c8.5 -20.6992 12.7998 -44.8994 12.7998 -72.3994c0 -30.9004 -5.09961 -58.6006 -15.2998 -83.2002c-10.2002 -24.0996 -24 -45.2998 -41.5 -63.5c-17 -18.2002 -36.3994 -35.0996 -58 -50.7998
c-22.0996 -15.7002 -45.2998 -30.7002 -69.5 -45.1006v-126.399h-132v172.8c13.2002 8.5 27.7998 17.5996 44 27.2998c21.7002 14.4004 38.9004 27.5 51.7002 39.4004c15.7002 15.2002 28.0996 31.7998 37 49.5c8.90039 18.2002 13.4004 38.5 13.4004 61
c0 33.3994 -10.6006 58.2002 -31.9004 74.2998c-13.2002 10.5996 -29.0996 17.7998 -47.7998 21.5996c-1.2998 0.400391 -2.60059 0.600586 -3.7998 0.600586c-1.7002 0.399414 -3.40039 0.799805 -5.10059 1.2998c-1.7002 0 -3.39941 0.200195 -5.09961 0.599609
c-6.40039 0.400391 -13 0.600586 -19.7998 0.600586c-27.6006 0 -53.8008 -4.2002 -78.5 -12.7002c-1.7002 -0.799805 -3.40039 -1.5 -5.10059 -1.90039c-1.2998 -0.399414 -2.59961 -0.799805 -3.7998 -1.2998c-3.40039 -1.7002 -7 -3.2002 -10.9004 -4.39941
c-3.89941 -1.2002 -7.5 -2.7002 -10.8994 -4.40039zM539.1 64.7002v-132.7h-130.8v132.7h130.8z" />
    <glyph glyph-name="U" unicode="U" 
d="M571.3 652.5c19.2998 -18.7998 29 -42 29 -69.2998s-9.7002 -50.7002 -29 -70s-42.7998 -28.9004 -70.2998 -28.9004s-50.9004 9.60059 -70.2998 28.9004c-19.2998 19.2998 -29 42.5996 -29 70c0 27.3994 9.7002 50.5 29 69.2998
c19.2998 19.7002 42.7002 29.5 70.2998 29.5c27.5 0 51 -9.90039 70.2998 -29.5zM374.7 375.7v59.0996h215.3v-423.2h67v-79.5996h-290v79.5996h75.4004v364.101h-67.7002z" />
    <glyph glyph-name="V" unicode="V" 
d="M610 135.9l-0.799805 0.699219l-30.5 99.1006l-2.2998 7.09961c-27 -8.09961 -55.5 -12.5996 -85.2002 -12.5996c-162.601 0 -294.4 131.8 -294.4 294.399c0 162.601 131.8 294.4 294.4 294.4c162.6 0 294.399 -131.8 294.5 -294.5
c0 -114.8 -65.7998 -213.9 -161.601 -262.5l2.7002 -5.7002l44.2002 -99.0996h-0.799805c-1 0.5 -1.5 0.5 -1.5 0c-10.1006 1.09961 -20.5 -0.700195 -31.2002 -5.2998h-0.799805c-0.5 0 -0.799805 -0.300781 -0.799805 -0.800781
c-10.7002 -3.5 -19.3008 -8.59961 -25.9004 -15.1992zM492.9 265.5c143.1 0 259 116 259 259s-115.9 259 -259 259c-143 0 -259 -116 -259 -259s115.899 -259 259 -259zM823.4 -140.8l0.799805 -4.7002c3.5 -7.59961 0 -16.2002 -10.7002 -25.9004l-3.7998 -3.7998
c-10.1006 -8.09961 -23.2998 -15.5 -39.6006 -22.0996c-18.7998 -6.10059 -34.7998 -8.60059 -48 -7.60059c-12.6992 1 -21.2998 4.60059 -25.8994 10.7002l-0.799805 4.60059c-2.10059 4.59961 -1.60059 9.39941 1.5 14.5c2.09961 4.09961 5.59961 8.39941 10.6992 13
c10.1006 9.59961 23.8008 17.5 41.1006 23.5996h0.799805c17.2998 7.09961 34 9.90039 50.2998 8.40039c11.7002 -0.5 19.5 -4.10059 23.6006 -10.7002zM738 -117.9c-21.2998 -7.59961 -38.5996 -17 -52 -28.0996c-10.0996 -10.2002 -15.2002 -19.9004 -15.2002 -29
c0 -2 0.5 -4.09961 1.5 -6.09961h-2.2998l-1.5 6.09961l-67.7998 267.5v3.09961c-0.5 5.60059 3.09961 12 10.7002 19.1006c8.09961 7.59961 18.7998 14.2002 32 19.7998c0.5 0.5 1.2998 1 2.2998 1.5h0.799805c14.2002 4.09961 27.4004 6.09961 39.5996 6.09961h3.10059
h0.799805c9.2002 -1.5 15.5 -4 19.0996 -7.59961v-0.799805c1 -1.10059 1.80078 -2.10059 2.30078 -3.10059v-1.5l115.8 -239.3l-28.2002 3c-19.4004 1 -39.2002 -2.2998 -59.5 -9.89941zM634.6 695.3c48.5 -40.8994 79.4004 -102.1 79.4004 -170.5
c0 -123.1 -99.7998 -222.8 -222.9 -222.8c-123.1 0 -222.899 99.7998 -222.899 222.9c0 123.1 99.7998 222.899 222.899 222.899c12.2002 0 24.2002 -1.2998 35.9004 -3.2002c-33.4004 -11.6992 -57.4004 -43.2998 -57.4004 -80.6992c0 -47.2002 38.3008 -85.5 85.5 -85.5
c47.2002 0 85.5 38.2998 85.5 85.5c0 11.0996 -2.19922 21.6992 -6 31.3994zM593.9 454.3c25.7998 0 46.6992 20.9004 46.7998 46.7998c0 25.9004 -21 46.8008 -46.7998 46.8008c-25.9004 0 -46.8008 -21 -46.8008 -46.8008c0 -25.8994 21 -46.7998 46.8008 -46.7998z" />
    <glyph glyph-name="W" unicode="W" 
d="M283.5 293.3c-2.90039 -33.2002 -16.5996 -62.0996 -41.2002 -86.7998c-27.5 -27.5 -61 -41.2002 -100.5 -41.2002s-73 13.7002 -100.5 41.2002c-24.7002 24.5996 -38.2002 53.5 -40.3994 86.7998c-0.600586 1.10059 -0.900391 2.2998 -0.900391 3.40039v10.2998
c0 39.5 13.7002 73 41.2002 100.5s61 41.2002 100.5 41.2002s73 -13.7998 100.5 -41.2002c27.5 -27.5 41.2002 -61 41.2002 -100.5v-10.2998c0.0996094 -1.2002 0.0996094 -2.2998 0.0996094 -3.40039zM659.8 293.3c-2.89941 -33.2002 -16.5996 -62.0996 -41.2002 -86.7998
c-27.5 -27.5 -61 -41.2002 -100.5 -41.2002s-73 13.7002 -100.5 41.2002c-24.5996 24.5996 -38.0996 53.5996 -40.3994 86.7998c-0.600586 1.10059 -0.900391 2.2998 -0.900391 3.40039v10.2998c0 39.5 13.7002 73 41.2002 100.5s61 41.2002 100.5 41.2002
s73 -13.7998 100.5 -41.2002c27.5 -27.5 41.2002 -61 41.2002 -100.5v-10.2998c0.0996094 -1.2002 0.0996094 -2.2998 0.0996094 -3.40039zM741.4 293.3c-0.600586 1.10059 -0.900391 2.2998 -0.900391 3.40039v10.2998c0 39.5 13.7002 73 41.2002 100.5
s61 41.2002 100.5 41.2002s73 -13.7998 100.5 -41.2002c27.5 -27.5 41.2002 -61 41.2002 -100.5v-10.2998v-3.40039c-2.90039 -33.2002 -16.6006 -62.0996 -41.2002 -86.7998c-27.5 -27.5 -61 -41.2002 -100.5 -41.2002s-73 13.7002 -100.5 41.2002
c-24.6006 24.5996 -38 53.5 -40.2998 86.7998z" />
    <glyph glyph-name="X" unicode="X" 
d="M217 679.5l597.9 -356.7c8.69922 -8.7002 8.69922 -22.8994 0 -31.7002l-597.9 -356.6c-5.2998 -5.2998 -14.5 -1.59961 -14.5 6v733c0 7.59961 9.2002 11.2998 14.5 6z" />
    <glyph glyph-name="Y" unicode="Y" 
d="M400.8 680.5c1.2002 0 2.2998 -1 2.2998 -2.2998v-743.9c0 -1.2998 -1 -2.2998 -2.2998 -2.2998h-227.1c-1.2998 0 -2.2998 1 -2.2998 2.2998v743.9c0 1.2998 1 2.2998 2.2998 2.2998h227.1zM850.3 682c1.2998 0 2.40039 -1 2.2998 -2.2998v-745.3
c0 -1.30078 -1 -2.30078 -2.2998 -2.30078h-227.1c-1.2998 0 -2.2998 1 -2.2998 2.30078v745.3c0 1.2998 1 2.2998 2.2998 2.2998h227.1z" />
    <glyph glyph-name="Z" unicode="Z" 
d="M344.4 819l512 -512l-512 -512l-176.801 176.7l335.301 335.3l-335.301 335.3z" />
    <glyph glyph-name="one" unicode="1" 
d="M720.1 767.3c0 -12.7998 -12.7998 -27.7998 -38.3994 -45.0996c-25.6006 -17.2002 -38.4004 -39.9004 -38.4004 -68c0 -47.2998 23.4004 -89.2002 70.2002 -125.601c40.9004 -30.5 86.5 -78.5996 136.7 -144.1c52.7002 -72.4004 76.0996 -149.7 70.2002 -232
c-5.90039 -97 -44.3008 -181 -115.301 -251.9c-71 -70.3994 -156.399 -105.6 -256.399 -105.6l-238.601 3c-14.7998 0 -33.5 5.40039 -56.0996 16.2002c-23.0996 10.2998 -36.5 35.2002 -39.9004 74.5996c-3.39941 38.9004 5.7002 60.2998 27.3008 64.2998
c-9.90039 0 -19.2002 0.700195 -28.1006 2.2002c-15.2998 3 -30 8.60059 -44.2998 17c-27.0996 15.7998 -41.4004 42.1006 -42.9004 79c-2 36.9004 6.7002 62.6006 25.9004 76.7998c18.2002 14.8008 29.2998 21.4004 33.2002 20
c-15.2998 5.40039 -28.7998 12.6006 -40.6006 21.4004c-25.0996 18.7002 -37.6992 41.5996 -37.6992 68.7002c0 27.0996 12.5996 50.2002 37.6992 69.5c16.3008 11.7998 34.7002 19.8994 55.4004 24.3994c-9.40039 5.40039 -18.2002 11.8008 -26.5996 19.2002
c-23.1006 20.7002 -33.5 44.6006 -31 71.7002c3 27.0996 17.1992 48.7998 42.7998 65c11.7998 6.90039 24.8994 12.2998 39.2002 16.2002c8.39941 2 18.1992 3.7002 29.5996 5.2002c102.5 3 171.4 3.39941 206.9 1.5c-13.8008 32.5 -20.7002 59.7998 -20.7002 82
c0 54.6992 10.2998 102 31 141.8c28.5 56.2002 72.7998 84.2998 132.899 84.2998c20.2002 0 43.8008 -4.90039 70.9004 -14.7998c30.0996 -11.2998 45.0996 -23.6006 45.0996 -36.9004z" />
    <glyph glyph-name="two" unicode="2" 
d="M736.5 656.2l-70.2002 -107c-84 31.7998 -169.2 69.2998 -255.5 112.399l39.5 134.2c60.4004 24.5 115.2 27.7002 164.2 9.5c65.5 -26.2002 106.1 -76 122 -149.1zM659.5 523.3l-142.4 -305.2c-95.3994 21.3008 -180.8 61.8008 -256.199 121.301l141 301.8
c80.5 -54.1006 166.3 -93.4004 257.6 -117.9zM504.2 200.4l-49.1006 -111.101l-188 -164.2c-24.0996 -10 -38.3994 -4.2998 -42.8994 17l-32.7002 237.101l56.5 130.899c79 -50 164.4 -86.5996 256.2 -109.699zM832.6 -179.2
c-0.599609 -3.09961 -7.5 -10.2002 -22.5 -21.0996c-1.39941 -0.900391 -2.5 -1.7998 -3.39941 -2.7002c-18.6006 18.2002 -96.5 32.5 -233.7 42.9004c-159 11.7998 -238.5 21.7998 -238.5 30c0 9.09961 15.2002 23.1992 45.5996 42.1992
c17.7002 -5.39941 42.7002 -9.5 74.9004 -12.2998c12.7002 -0.899414 66.2998 -3.39941 160.8 -7.5c106.3 -4.59961 173.101 -16.5996 200.3 -36.0996c0.100586 0.0996094 20.3008 -16 16.5 -35.4004z" />
    <glyph glyph-name="three" unicode="3" 
d="M511 -33.0996v3.2998h211v-3.2998c0 -29.6006 -10.2002 -54.6006 -30.5 -75c-20.7998 -20.8008 -45.5 -31.2002 -74.2998 -31.2002c-29.7002 0 -54.9004 10.3994 -75.7002 31.2002c-20.2998 20.3994 -30.5 45.3994 -30.5 75zM970.9 115.5
c32.7998 -40.2002 50.3994 -83.7998 53.0996 -130.8h-827.6c2.69922 46.8994 20.5996 90.3994 53.7998 130.7c66.8994 31.8994 114.6 86.2998 143.399 163.3l41.1006 242.899c23 76.1006 61.7002 125.2 116.1 147.301v15.2998v6.59961
c0 17.2998 6.2002 32.1006 18.6006 44.5c12.3994 11.9004 27 17.9004 43.7998 17.9004c18.0996 0 33.2002 -6 45.0996 -17.9004c12.4004 -12.3994 18.6006 -27.2002 18.6006 -44.5v-6.59961v-19.2002c50.8994 -22.5 86.6992 -70.2998 107.5 -143.3l25.8994 -148
l13.9004 -75.7002l2.7002 -19.2002c28.6992 -77 76.6992 -131.5 144 -163.3zM150.6 223.7l-7.2998 -26.5l-143.3 39.7998l21.2002 56.4004zM18.5996 29.9004l134.7 58.3994l15.9004 -21.8994l-118.8 -87.6006zM236.9 298l-26.5 -9.2998l-47.1006 140.7l59 14z" />
    <glyph glyph-name="four" unicode="4" 
d="M657.8 546.5l62.7998 0.200195v-146.4h-85.8994l-85.9004 98.5l0.400391 -98.5h-62.7998v146.2h82.7998l88.3994 -98.2998zM898.1 546.7l96.8008 -146.7l-72.7002 0.200195l-15 26.2998l-101.3 -0.200195l-16 -26.2998l-65.3008 0.200195l101.101 146.3zM825.2 458.5
h64.5996l-31.3994 53.0996zM707.1 264.4l-0.199219 -8.40039l2.5 -8l178.8 -308.3l-56.2002 -52.9004l-282 476.9l474 -0.200195v-75.5996l-289.5 -0.200195l-9.09961 -2.90039l-8.40039 -4.2002l-6.90039 -7.19922zM590.6 772.2
c21.5 -21.5 32.2002 -47.4004 32.2002 -77.9004c0 -30.2998 -10.7002 -56.2998 -32.2002 -77.8994c-21.5996 -21.7002 -47.3994 -32.5 -77.2998 -32.4004c-30.2998 0 -56.2002 10.7998 -77.7002 32.4004c-21.5996 21.5996 -32.2998 47.5 -32.1992 77.8994
c0 30.2998 10.6992 56.2998 32.1992 77.9004c21.5 21.5 47.4004 32.3994 77.4004 32.5c30.2998 0 56.0996 -10.7998 77.5996 -32.5zM459 431.8v-31.5996h-178.3v146.5h174.3v-31.6006h-109v-23.1992l100.6 -0.400391l-0.199219 -31.2002l-100.4 0.299805v-28.7998h113z
M151.8 548.6c32.1006 0.100586 56 -3.39941 71.6006 -10.5c15.3994 -7.19922 23.0996 -18.0996 23.1992 -32.5996v-1.7002h-60.8994v0.600586c0 5.09961 -3.2002 8.89941 -9.5 11.3994c-6 2.7002 -15 4 -27 4c-9.2998 0 -16.5 -1 -21.7002 -2.89941
c-4.7998 -1.80078 -7.2002 -4.40039 -7.2002 -7.80078c0 -6.09961 13.2998 -11.3994 40 -15.7998l12 -1.7002c18.7998 -3.2998 32.2998 -6.09961 40.6006 -8.39941c8.39941 -2.5 15.1992 -5.2002 20.5996 -8c6.7002 -3.40039 11.9004 -7.90039 15.4004 -13.2998
c3.59961 -5.5 5.39941 -11.4004 5.5 -17.9004c-0.300781 -14.9004 -9.5 -26.4004 -27.8008 -34.7002c-18.7998 -7.7002 -45.5 -11.7002 -80 -11.7998c-34.1992 0 -58.8994 3.90039 -74.2998 11.5996c-15.5 7.7002 -23.2002 20.1006 -23.2002 37.1006v1.89941
l64.4004 0.200195v-0.399414c-0.400391 -2 -0.599609 -3.40039 -0.599609 -4c0 -5.60059 3.2998 -9.90039 9.89941 -12.9004c6.2998 -2.5 16.4004 -3.7998 30.1006 -3.7998c10.1992 -0.100586 18.2998 1 24.3994 3.39941c5.7002 2.2002 8.60059 5.2002 8.60059 9.10059
c0 6 -11.5 10.8994 -34.5 14.7002l-12.8008 2.09961c-36.7998 6.09961 -60.5 12.7002 -71 19.7998c-5.19922 3.2998 -9.19922 7.40039 -12 12.2002c-2.39941 4.7002 -3.59961 9.90039 -3.59961 15.5996c0 14.6006 8.40039 25.6006 25.2998 33.1006
c17 7.59961 41.9004 11.3994 74.5 11.3994zM287.6 285.8h-287.6v77.1006h468.9l-275.2 -478.801l-58.7002 54.9004l180 312.7l2.09961 8.2002l-1 9.5l-3 5.2998l-3.7998 4l-9.5 5zM511.9 106.9l-9.5 -1.90039l-7.40039 -3.40039l-4.7998 -6.69922l-169.3 -285.7
l-68.6006 34.2998l258.2 438.8l264 -436.3l-69.9004 -36.7998l-170.399 285.899l-5.10059 5.7002l-6.69922 4.2002z" />
    <glyph glyph-name="five" unicode="5" 
d="M679.6 -205l-512 512l512 512l176.801 -176.7l-335.301 -335.3l335.301 -335.3z" />
  </font>
</defs>
</svg>
